<svg xmlns="http://www.w3.org/2000/svg" width="30" height="27.931" viewBox="0 0 30 27.931">
  <g id="for-work" transform="translate(0 -17.655)">
    <path id="Path_6300" data-name="Path 6300" d="M31.862,220.69v2.389a.828.828,0,0,1-.584.791l-3.627,1.116a1.655,1.655,0,0,0-1.168,1.582v6.019a2.069,2.069,0,0,0,2.069,2.069h11.9V220.69Z" transform="translate(-24.931 -191.138)" fill="#d29b6e"/>
    <path id="Path_6301" data-name="Path 6301" d="M34.759,235.207a5.694,5.694,0,0,1-4.783-2.626l-2.325.715a1.655,1.655,0,0,0-1.168,1.582V240.9a2.069,2.069,0,0,0,2.069,2.069h11.9V229.517A5.706,5.706,0,0,1,34.759,235.207Z" transform="translate(-24.931 -199.448)" fill="#59d8ff"/>
    <g id="Group_3731" data-name="Group 3731" transform="translate(1.552 30.069)">
      <path id="Path_6302" data-name="Path 6302" d="M80.11,229.517a5.682,5.682,0,0,1-10.473,3.063l-1.024.315a6.712,6.712,0,0,0,11.5.194Z" transform="translate(-66.144 -229.517)" fill="#00c3f0"/>
      <path id="Path_6303" data-name="Path 6303" d="M35.276,311.541H30.1a.517.517,0,0,1-.517-.517v-2.461a1.552,1.552,0,0,0-.454-1.1l-2.358-2.358a1.649,1.649,0,0,0-.291.931v6.019a2.069,2.069,0,0,0,2.069,2.069h8.276v-1.034A1.552,1.552,0,0,0,35.276,311.541Z" transform="translate(-26.483 -300.679)" fill="#00c3f0"/>
    </g>
    <path id="Path_6304" data-name="Path 6304" d="M89.018,100.725h-.077L88.759,97.1H80.548v3.621h-.323a.776.776,0,0,0-.776.776v1.034a.776.776,0,0,0,.776.776h.49l.084.525a1.655,1.655,0,0,0,.575,1.01l1.661,1.384a1.242,1.242,0,0,0,.795.288h1.584a1.242,1.242,0,0,0,.795-.288l1.661-1.384a1.655,1.655,0,0,0,.575-1.01l.084-.525h.49a.776.776,0,0,0,.776-.776V101.5A.776.776,0,0,0,89.018,100.725Z" transform="translate(-74.794 -74.794)" fill="#f0c087"/>
    <path id="Path_6305" data-name="Path 6305" d="M88.759,97.1H80.548v3.621h-.323a.776.776,0,0,0-.776.776v1.034a.776.776,0,0,0,.776.776h.49l.084.525a1.655,1.655,0,0,0,.575,1.01l1.661,1.384a1.242,1.242,0,0,0,.795.288h.654l-.737-2.212a3.1,3.1,0,0,1-.159-.981v-3.117a.517.517,0,0,1,.517-.517h0a1.115,1.115,0,0,0,.724-.249,2.277,2.277,0,0,0,2.069,0,2.27,2.27,0,0,0,1.034.249,1.347,1.347,0,0,0,.153-.009h.8Z" transform="translate(-74.794 -74.793)" fill="#e6af78"/>
    <path id="Path_6306" data-name="Path 6306" d="M80.855,22.207a1.238,1.238,0,0,0-.919-1.194,1.238,1.238,0,0,0-1.15-1.7c-.025,0-.049.006-.074.007a1.237,1.237,0,0,0-1.168-.835,1.182,1.182,0,0,0-.379.065,1.419,1.419,0,0,0-1.387-.441,1.64,1.64,0,0,0-2.26,0,1.426,1.426,0,0,0-1.332.378h-.021A1.238,1.238,0,0,0,71,19.318c-.025,0-.049-.007-.074-.007a1.238,1.238,0,0,0-1.151,1.7,1.231,1.231,0,0,0-.6,2.021,1.226,1.226,0,0,0,.3,1.9,1.033,1.033,0,0,0,1.031,1h.452a.414.414,0,0,0,.408-.346l.289-1.732c.031,0,.061.009.092.009a1.239,1.239,0,0,0,1.034-.557,1.239,1.239,0,0,0,2.069,0,1.239,1.239,0,0,0,2.069,0,1.239,1.239,0,0,0,1.034.557c.032,0,.061-.007.092-.009l.289,1.732a.414.414,0,0,0,.408.346H79.3A1.035,1.035,0,0,0,80.338,24.9c0-.011,0-.021,0-.031a1.226,1.226,0,0,0,.2-1.831A1.232,1.232,0,0,0,80.855,22.207Z" transform="translate(-64.821)" fill="#694b4b"/>
    <path id="Path_6307" data-name="Path 6307" d="M74.346,22.961a1.23,1.23,0,0,1-.513-2,1.231,1.231,0,0,1,.6-2.021,1.222,1.222,0,0,1,.23-1.288h-.011a1.645,1.645,0,0,0-1.13.451,1.426,1.426,0,0,0-1.332.378h-.021A1.238,1.238,0,0,0,71,19.318c-.025,0-.049-.007-.074-.007a1.238,1.238,0,0,0-1.151,1.7,1.231,1.231,0,0,0-.6,2.021,1.226,1.226,0,0,0,.3,1.9,1.033,1.033,0,0,0,1.031,1h.452a.414.414,0,0,0,.408-.346l.289-1.732c.031,0,.061.009.092.009a1.239,1.239,0,0,0,1.034-.557,1.239,1.239,0,0,0,1.034.557,1.224,1.224,0,0,0,.753-.265.807.807,0,0,1-.235-.562C74.339,23.009,74.344,22.985,74.346,22.961Z" transform="translate(-64.821 0)" fill="#5a4146"/>
    <path id="Path_6308" data-name="Path 6308" d="M150.069,414.9h1.552a1.552,1.552,0,0,1,1.552,1.552v1.034h-3.1Z" transform="translate(-141.276 -373.966)" fill="#e6af78"/>
    <path id="Path_6309" data-name="Path 6309" d="M211.276,197.793H195.759a1.552,1.552,0,0,1-1.552-1.552v-9.31a1.552,1.552,0,0,1,1.552-1.552h15.517a1.552,1.552,0,0,1,1.552,1.552v9.31A1.552,1.552,0,0,1,211.276,197.793Z" transform="translate(-182.828 -157.896)" fill="#d5dced"/>
    <path id="Path_6310" data-name="Path 6310" d="M306.344,334.38l-.915-6.861a1.034,1.034,0,0,0-1.025-.9h-2.326a1.035,1.035,0,0,0-1.025.9l-.915,6.861v1.034h6.207V334.38Z" transform="translate(-282.551 -290.863)" fill="#afb9d2"/>
    <circle id="Ellipse_88" data-name="Ellipse 88" cx="1.034" cy="1.034" r="1.034" transform="translate(19.655 31.62)" fill="#fff"/>
    <path id="Path_6311" data-name="Path 6311" d="M29.483,461.1H.517A.517.517,0,0,1,0,460.586v-1.034a.517.517,0,0,1,.517-.517H29.483a.517.517,0,0,1,.517.517v1.034A.517.517,0,0,1,29.483,461.1Z" transform="translate(0 -415.517)" fill="#f5dcb4"/>
  </g>
</svg>
